<svg id="reg" enable-background="new 0 0 24 24" height="512" viewBox="0 0 24 24" width="512" xmlns="http://www.w3.org/2000/svg"><path d="m8.07 22.81c-12.039-4.368-8.881-22.31 3.93-22.31 12.806 0 15.972 17.941 3.93 22.31l-2.81-7.5c3.731-1.244 2.831-6.81-1.12-6.81-3.947 0-4.854 5.565-1.12 6.81z" fill="#4caf50"/><path d="m7.885 23.103s.721.261.972-.432c3.116-8.191 2.724-7.154 2.76-7.26.109-.331-.085-.798-.446-.935-.006-.002-.012-.001-.018-.003-.005-.002-.009-.006-.015-.008-1.561-.513-1.927-1.867-1.767-2.872.165-1.028.952-2.228 2.629-2.228s2.464 1.201 2.628 2.229c.161 1.004-.206 2.359-1.767 2.872-.006.002-.009.006-.015.008s-.012.001-.018.003c-.636.242-.464.864-.438.95.429 1.129 2.911 7.664 2.752 7.246.142.373.562.579.954.439.004-.001.007-.003.01-.004.001 0 .003 0 .004-.001.002-.001.003-.002.004-.003 6.47-2.322 8.518-8.26 7.676-13.12-.847-4.893-4.822-9.829-11.79-9.829-6.969 0-10.944 4.935-11.792 9.825-.842 4.861 1.206 10.801 7.677 13.123zm-6.198-12.867c.74-4.271 4.216-8.581 10.313-8.581 6.096 0 9.572 4.312 10.313 8.585.705 4.068-.921 8.994-6.04 11.181l-2.222-5.842c1.732-.914 2.301-2.705 2.058-4.222-.269-1.682-1.669-3.492-4.109-3.492s-3.841 1.81-4.11 3.492c-.243 1.517.327 3.307 2.059 4.222l-2.222 5.841c-5.119-2.187-6.746-7.115-6.04-11.184z"/></svg>